<?xml version="1.0" standalone="no"?>
<!DOCTYPE svg PUBLIC "-//W3C//DTD SVG 20010904//EN"
 "http://www.w3.org/TR/2001/REC-SVG-20010904/DTD/svg10.dtd">
<svg version="1.0" xmlns="http://www.w3.org/2000/svg"
 width="1920.000000pt" height="1920.000000pt" viewBox="0 0 1920.000000 1920.000000"
 preserveAspectRatio="xMidYMid meet">

<g transform="translate(0.000000,1920.000000) scale(0.100000,-0.100000)"
fill="#000000" stroke="none">
<path d="M5190 14253 c-322 -35 -667 -169 -988 -384 -319 -213 -572 -469 -792
-801 -140 -211 -249 -450 -418 -919 -319 -882 -543 -2059 -572 -3014 -16 -529
-22 -1772 -11 -2395 11 -654 13 -679 80 -879 37 -109 162 -362 232 -465 51
-77 136 -163 215 -217 63 -43 272 -141 369 -173 133 -43 223 -58 380 -63 246
-8 429 32 650 142 159 79 271 162 397 293 109 114 188 214 284 363 37 57 122
181 189 274 156 217 425 610 657 958 286 429 786 1148 807 1161 5 3 46 -8 92
-24 240 -83 443 -114 699 -107 264 8 433 48 644 153 172 87 310 187 586 424
405 349 605 444 935 443 173 -1 289 -28 440 -103 134 -66 240 -145 465 -344
231 -205 290 -253 405 -329 120 -79 226 -131 348 -172 185 -61 247 -70 502
-70 265 0 354 14 598 92 75 24 142 41 147 38 22 -14 504 -706 827 -1190 258
-386 484 -716 638 -930 67 -93 152 -217 189 -274 96 -149 175 -249 284 -363
126 -131 238 -214 397 -293 221 -110 404 -150 650 -142 222 7 361 42 583 148
260 123 347 214 508 531 82 162 135 307 159 438 34 183 44 2168 15 3085 -30
940 -254 2126 -565 2987 -176 485 -284 723 -425 936 -405 613 -975 1018 -1636
1164 l-99 22 -4415 2 c-2428 0 -4431 -1 -4450 -3z m8505 -948 c261 -88 426
-370 371 -635 -66 -315 -371 -516 -675 -445 -111 27 -188 70 -271 154 -88 89
-134 173 -156 288 -18 93 -17 130 1 218 41 194 184 357 370 420 103 35 255 35
360 0z m990 -1030 c105 -27 184 -72 260 -149 79 -80 125 -158 149 -257 86
-350 -177 -691 -534 -690 -103 0 -162 13 -245 52 -199 94 -315 280 -315 505 0
150 47 267 151 379 136 145 346 208 534 160z m-1054 -1035 c192 -36 372 -209
424 -406 55 -213 -29 -452 -206 -586 -110 -83 -215 -113 -365 -106 -123 6
-187 27 -284 93 -147 99 -229 248 -238 429 -5 116 8 185 50 271 118 235 360
354 619 305z"/>
</g>
</svg>
