<?xml version="1.0" standalone="no"?>
<!DOCTYPE svg PUBLIC "-//W3C//DTD SVG 20010904//EN"
 "http://www.w3.org/TR/2001/REC-SVG-20010904/DTD/svg10.dtd">
<svg version="1.0" xmlns="http://www.w3.org/2000/svg"
 width="246.000000pt" height="205.000000pt" viewBox="0 0 246.000000 205.000000"
 preserveAspectRatio="xMidYMid meet">

<g transform="translate(0.000000,205.000000) scale(0.100000,-0.100000)"
fill="#000000" stroke="none">
<path d="M610 1919 c-48 -19 -93 -62 -116 -113 l-24 -51 0 -677 0 -678 -187
-2 -188 -3 -3 -29 c-9 -75 46 -169 119 -206 37 -19 62 -20 794 -20 728 0 757
1 794 19 49 26 97 81 111 128 7 24 10 122 8 268 l-3 230 -24 3 c-13 2 -28 -2
-32 -10 -5 -7 -9 -114 -9 -238 0 -262 -4 -278 -83 -319 -90 -46 -190 0 -217
99 -6 25 -15 52 -20 60 -6 13 -74 15 -499 18 l-491 2 0 679 0 678 23 33 c12
18 35 43 50 54 28 21 37 21 663 24 374 1 634 -1 634 -6 0 -5 -7 -15 -15 -22
-31 -26 -45 -108 -45 -270 0 -120 3 -161 14 -176 12 -15 18 -17 33 -8 16 10
18 29 21 148 l3 136 184 0 c176 0 184 1 190 20 20 64 -40 178 -114 217 l-44
23 -751 -1 c-469 0 -760 -4 -776 -10z m1540 -74 c32 -17 56 -43 69 -78 l11
-27 -150 0 c-98 0 -150 4 -150 10 0 23 30 68 57 85 52 35 107 38 163 10z
m-674 -1533 c2 -9 16 -38 29 -65 l25 -47 -634 2 c-626 3 -635 3 -663 24 -28
21 -73 80 -73 95 0 5 295 9 655 9 616 0 656 -1 661 -18z"/>
<path d="M684 1575 c-15 -38 2 -46 88 -43 81 3 83 4 83 28 0 24 -2 25 -83 28
-67 2 -83 0 -88 -13z"/>
<path d="M954 1575 c-17 -44 -15 -44 373 -47 202 -2 376 1 386 5 11 5 17 17
15 30 l-3 22 -383 3 c-334 2 -383 0 -388 -13z"/>
<path d="M2069 1335 c-218 -35 -383 -99 -498 -195 -107 -89 -161 -194 -241
-466 -45 -153 -47 -172 -24 -181 31 -12 47 13 74 107 17 60 33 98 46 106 10 7
90 34 178 59 179 52 206 64 331 149 111 76 430 380 430 410 0 20 -6 21 -105
23 -58 1 -144 -5 -191 -12z m-117 -120 c-112 -60 -288 -178 -394 -264 -85 -68
-88 -69 -74 -36 64 152 221 265 451 326 105 27 108 23 17 -26z m143 -73 c-169
-166 -299 -247 -483 -300 -96 -28 -102 -29 -85 -10 31 34 243 190 342 252 97
60 305 166 325 166 6 0 -38 -49 -99 -108z"/>
<path d="M687 1243 c-14 -13 -7 -43 12 -53 13 -6 152 -10 385 -10 318 0 367 2
380 16 9 8 16 19 16 23 0 29 -31 31 -405 31 -210 0 -385 -3 -388 -7z"/>
<path d="M683 894 c-3 -9 -2 -24 4 -33 9 -14 43 -16 264 -19 211 -2 258 0 274
12 16 12 18 18 9 33 -10 17 -33 18 -278 21 -240 2 -267 1 -273 -14z"/>
<path d="M683 554 c-3 -9 -2 -24 4 -33 15 -23 368 -29 398 -7 16 12 18 18 9
33 -10 16 -31 18 -208 21 -175 2 -197 1 -203 -14z"/>
</g>
</svg>
